<?xml version="1.0" encoding="utf-8"?>
<!-- Generator: Adobe Illustrator 21.0.0, SVG Export Plug-In . SVG Version: 6.00 Build 0)  -->
<svg version="1.1" id="Capa_1" xmlns="http://www.w3.org/2000/svg" xmlns:xlink="http://www.w3.org/1999/xlink" x="0px" y="0px"
	 viewBox="0 0 294.8 294.8" style="enable-background:new 0 0 294.8 294.8;" xml:space="preserve">
<style type="text/css">
	.st0{fill:#008BD7;}
</style>
<g>
	<path class="st0" d="M33.3,0c-17.6,0-32,14.4-32,32c0,3.3,2.7,6,6,6s6-2.7,6-6c0-11,9-20,20-20s20,9,20,20s-9,20-20,20
		c-3.3,0-6,2.7-6,6s2.7,6,6,6c17.6,0,32-14.4,32-32S51,0,33.3,0z"/>
	<path class="st0" d="M147.4,0c-17.6,0-32,14.4-32,32s14.4,32,32,32s32-14.4,32-32S165.1,0,147.4,0z M147.4,52c-11,0-20-9-20-20
		s9-20,20-20s20,9,20,20S158.4,52,147.4,52z"/>
	<path class="st0" d="M261.5,64c17.6,0,32-14.4,32-32s-14.4-32-32-32s-32,14.4-32,32S243.9,64,261.5,64z M261.5,12c11,0,20,9,20,20
		s-9,20-20,20s-20-9-20-20S250.5,12,261.5,12z"/>
	<path class="st0" d="M33.3,115.4c-17.6,0-32,14.4-32,32s14.4,32,32,32s32-14.4,32-32S51,115.4,33.3,115.4z M33.3,167.4
		c-11,0-20-9-20-20s9-20,20-20s20,9,20,20S44.3,167.4,33.3,167.4z"/>
	<path class="st0" d="M173.4,141.4c-3.3,0-6,2.7-6,6c0,11-9,20-20,20s-20-9-20-20s9-20,20-20c3.3,0,6-2.7,6-6s-2.7-6-6-6
		c-17.6,0-32,14.4-32,32s14.4,32,32,32s32-14.4,32-32C179.4,144.1,176.7,141.4,173.4,141.4z"/>
	<path class="st0" d="M261.5,115.4c-17.6,0-32,14.4-32,32s14.4,32,32,32s32-14.4,32-32S279.2,115.4,261.5,115.4z M261.5,167.4
		c-11,0-20-9-20-20s9-20,20-20s20,9,20,20S272.5,167.4,261.5,167.4z"/>
	<path class="st0" d="M33.3,230.9c-17.6,0-32,14.4-32,32s14.4,32,32,32s32-14.4,32-32S51,230.9,33.3,230.9z M33.3,282.8
		c-11,0-20-9-20-20s9-20,20-20s20,9,20,20C53.3,273.9,44.3,282.8,33.3,282.8z"/>
	<path class="st0" d="M147.4,230.9c-17.6,0-32,14.4-32,32s14.4,32,32,32s32-14.4,32-32S165.1,230.9,147.4,230.9z M147.4,282.8
		c-11,0-20-9-20-20s9-20,20-20s20,9,20,20C167.4,273.9,158.4,282.8,147.4,282.8z"/>
	<path class="st0" d="M261.5,230.9c-17.6,0-32,14.4-32,32s14.4,32,32,32s32-14.4,32-32S279.2,230.9,261.5,230.9z M261.5,282.8
		c-11,0-20-9-20-20s9-20,20-20s20,9,20,20C281.5,273.9,272.5,282.8,261.5,282.8z"/>
</g>
</svg>
