<?xml version="1.0" encoding="utf-8"?>
<!-- Generator: Adobe Illustrator 21.0.0, SVG Export Plug-In . SVG Version: 6.00 Build 0)  -->
<svg version="1.1" id="Layer_1" xmlns="http://www.w3.org/2000/svg" xmlns:xlink="http://www.w3.org/1999/xlink" x="0px" y="0px"
	 viewBox="0 0 130 125" style="enable-background:new 0 0 130 125;" xml:space="preserve">
<style type="text/css">
	.st0{fill:#008BD7;}
</style>
<g>
	<rect x="74.9" y="82.8" class="st0" width="21.9" height="13.6"/>
	<rect x="103.2" y="82.8" class="st0" width="21.9" height="13.6"/>
	<rect x="74.9" y="103.1" class="st0" width="21.9" height="13.6"/>
	<rect x="103.2" y="103.1" class="st0" width="21.9" height="13.6"/>
	<path class="st0" d="M65,8.3c-33.1,0-60.1,27-60.1,60.1c0,19.8,9.6,37.4,24.3,48.3l14.4-13.9V60.9h28.8v14.4l28-27l24.6,23.5
		c0-1.1,0-2.1,0-3.2C125.1,35.3,98.4,8.3,65,8.3z M63.7,53.7H52.7c-2.1,0-3.7-1.6-3.7-3.7c0-2.1,1.6-3.7,3.7-3.7c0.3,0,0.5,0,0.8,0
		c0.3-2.7,2.1-4.5,4.8-4.5c2.4,0,4.5,1.9,4.8,4.3c0.3,0,0.3,0,0.5,0c2.1,0,3.7,1.6,3.7,3.7S65.8,53.7,63.7,53.7z M95.4,37.9H78.6
		c-3.2,0-5.9-2.7-5.9-5.9c0-3.2,2.7-5.9,5.9-5.9c0.5,0,0.8,0,1.3,0.3c0.5-3.7,3.5-6.7,7.5-6.7c3.7,0,6.9,2.9,7.5,6.7
		c0.3,0,0.5,0,0.8,0c3.2,0,5.9,2.7,5.9,5.9S98.6,37.9,95.4,37.9z"/>
</g>
</svg>
